<svg width="20" height="20" viewBox="0 0 20 20" fill="none" xmlns="http://www.w3.org/2000/svg">
<path d="M13.6458 2.7082C14.6119 2.71109 15.5376 3.09616 16.2208 3.77931C16.9039 4.46246 17.289 5.38818 17.2919 6.3543V13.6457C17.289 14.6118 16.9039 15.5375 16.2208 16.2207C15.5376 16.9038 14.6119 17.2889 13.6458 17.2918H6.35436C5.38824 17.2889 4.46252 16.9038 3.77937 16.2207C3.09622 15.5375 2.71115 14.6118 2.70826 13.6457V6.3543C2.71115 5.38818 3.09622 4.46246 3.77937 3.77931C4.46252 3.09616 5.38824 2.71109 6.35436 2.7082H13.6458ZM13.6458 1.25H6.35436C3.54694 1.25 1.25006 3.54687 1.25006 6.3543V13.6457C1.25006 16.4531 3.54694 18.75 6.35436 18.75H13.6458C16.4532 18.75 18.7501 16.4531 18.7501 13.6457V6.3543C18.7501 3.54687 16.4532 1.25 13.6458 1.25Z" fill="white"/>
<path d="M14.7395 6.3543C14.5232 6.3543 14.3117 6.29015 14.1319 6.16997C13.952 6.04978 13.8118 5.87896 13.729 5.67911C13.6462 5.47925 13.6246 5.25933 13.6668 5.04717C13.709 4.835 13.8132 4.64011 13.9661 4.48715C14.1191 4.33419 14.314 4.23002 14.5261 4.18781C14.7383 4.14561 14.9582 4.16727 15.1581 4.25005C15.3579 4.33284 15.5288 4.47303 15.6489 4.65289C15.7691 4.83276 15.8333 5.04422 15.8333 5.26055C15.8336 5.40427 15.8055 5.54663 15.7506 5.67947C15.6958 5.81231 15.6152 5.93301 15.5136 6.03463C15.412 6.13626 15.2913 6.21681 15.1584 6.27167C15.0256 6.32653 14.8832 6.35461 14.7395 6.3543Z" fill="white"/>
<path d="M10.0001 7.0832C10.5769 7.0832 11.1409 7.25427 11.6205 7.57477C12.1002 7.89527 12.4741 8.35082 12.6948 8.88379C12.9156 9.41677 12.9734 10.0032 12.8608 10.569C12.7483 11.1348 12.4705 11.6546 12.0625 12.0625C11.6546 12.4704 11.1349 12.7482 10.5691 12.8608C10.0033 12.9733 9.41683 12.9155 8.88385 12.6948C8.35088 12.474 7.89534 12.1002 7.57483 11.6205C7.25433 11.1408 7.08326 10.5769 7.08326 10C7.08409 9.22667 7.39166 8.48525 7.93849 7.93843C8.48531 7.3916 9.22673 7.08403 10.0001 7.0832ZM10.0001 5.625C9.13477 5.625 8.28891 5.88159 7.56944 6.36232C6.84998 6.84305 6.28922 7.52633 5.95809 8.32576C5.62696 9.12519 5.54032 10.0049 5.70913 10.8535C5.87794 11.7022 6.29461 12.4817 6.90647 13.0936C7.51832 13.7054 8.29787 14.1221 9.14654 14.2909C9.99521 14.4597 10.8749 14.3731 11.6743 14.042C12.4737 13.7108 13.157 13.1501 13.6377 12.4306C14.1185 11.7112 14.3751 10.8653 14.3751 10C14.3751 8.83968 13.9141 7.72688 13.0937 6.90641C12.2732 6.08594 11.1604 5.625 10.0001 5.625Z" fill="white"/>
</svg>
