<svg width="36" height="36" viewBox="0 0 36 36" fill="none" xmlns="http://www.w3.org/2000/svg">
<path fill-rule="evenodd" clip-rule="evenodd" d="M11.6671 21.395C13.4175 19.8392 15.678 18.9798 18.0199 18.9798C20.3618 18.9798 22.6223 19.8392 24.3727 21.395L25.4763 22.376L23.5144 24.5832L22.4108 23.6022C21.201 22.5269 19.6386 21.9329 18.0199 21.9329C16.4012 21.9329 14.8388 22.5269 13.629 23.6022L12.5254 24.5832L10.5635 22.376L11.6671 21.395Z" fill="#1672c9"/>
<path fill-rule="evenodd" clip-rule="evenodd" d="M7.34556 17.1311C10.2405 14.4241 14.0558 12.9182 18.0192 12.9182C21.9826 12.9182 25.7979 14.4241 28.6928 17.1311L29.7714 18.1395L27.7544 20.2966L26.6759 19.2881C24.328 17.0926 21.2336 15.8713 18.0192 15.8713C14.8048 15.8713 11.7104 17.0926 9.36253 19.2881L8.28402 20.2966L6.26704 18.1395L7.34556 17.1311Z" fill="#1672c9"/>
<path fill-rule="evenodd" clip-rule="evenodd" d="M3.55595 12.363C7.53667 8.8119 12.6847 6.84937 18.0192 6.84937C23.3537 6.84937 28.5017 8.8119 32.4825 12.363L33.5843 13.346L31.6184 15.5497L30.5166 14.5667C27.0769 11.4983 22.6286 9.80249 18.0192 9.80249C13.4098 9.80249 8.96148 11.4983 5.52183 14.5667L4.41998 15.5497L2.4541 13.346L3.55595 12.363Z" fill="#1672c9"/>
<path d="M21.1404 26.9986L17.9995 30.4439L14.8819 26.9986C15.2553 26.5274 15.7305 26.1467 16.2718 25.885C16.8132 25.6233 17.4067 25.4874 18.008 25.4874C18.6092 25.4874 19.2027 25.6233 19.7441 25.885C20.2854 26.1467 20.7606 26.5274 21.134 26.9986H21.1404Z" fill="#1672c9"/>
</svg>
