<svg width="32" height="33" viewBox="0 0 32 33" fill="none" xmlns="http://www.w3.org/2000/svg">
<path d="M28.0007 21.5035V20.0007C28.0007 18.9398 27.5793 17.9224 26.8291 17.1722C26.0789 16.422 25.0615 16.0006 24.0006 16.0006H17.3336V13.2004C18.9524 12.87 20.3908 11.9503 21.37 10.6195C22.3493 9.28881 22.7995 7.64189 22.6334 5.99809C22.4674 4.35428 21.6969 2.83068 20.4713 1.72269C19.2457 0.614687 17.6524 0.0012207 16.0002 0.0012207C14.348 0.0012207 12.7547 0.614687 11.5292 1.72269C10.3036 2.83068 9.53308 4.35428 9.36702 5.99809C9.20096 7.64189 9.65118 9.28881 10.6304 10.6195C11.6096 11.9503 13.048 12.87 14.6668 13.2004V16.0006H7.99987C6.93896 16.0006 5.9215 16.422 5.17132 17.1722C4.42114 17.9224 3.9997 18.9398 3.9997 20.0007V21.5035C2.74277 21.828 1.64734 22.5998 0.918762 23.6742C0.190181 24.7486 -0.121538 26.0519 0.0420348 27.3397C0.205608 28.6275 0.833243 29.8115 1.80729 30.6696C2.78134 31.5278 4.03493 32.0012 5.33309 32.0012C6.63124 32.0012 7.88484 31.5278 8.85889 30.6696C9.83294 29.8115 10.4606 28.6275 10.6241 27.3397C10.7877 26.0519 10.476 24.7486 9.74742 23.6742C9.01884 22.5998 7.92341 21.828 6.66648 21.5035V20.0007C6.66648 19.6471 6.80696 19.3079 7.05702 19.0579C7.30708 18.8078 7.64623 18.6673 7.99987 18.6673H14.6668V21.5035C13.4099 21.828 12.3145 22.5998 11.5859 23.6742C10.8573 24.7486 10.5456 26.0519 10.7092 27.3397C10.8727 28.6275 11.5004 29.8115 12.4744 30.6696C13.4485 31.5278 14.7021 32.0012 16.0002 32.0012C17.2984 32.0012 18.552 31.5278 19.526 30.6696C20.5001 29.8115 21.1277 28.6275 21.2913 27.3397C21.4548 26.0519 21.1431 24.7486 20.4145 23.6742C19.686 22.5998 18.5905 21.828 17.3336 21.5035V18.6673H24.0006C24.3542 18.6673 24.6934 18.8078 24.9434 19.0579C25.1935 19.3079 25.334 19.6471 25.334 20.0007V21.5035C24.077 21.828 22.9816 22.5998 22.253 23.6742C21.5244 24.7486 21.2127 26.0519 21.3763 27.3397C21.5399 28.6275 22.1675 29.8115 23.1416 30.6696C24.1156 31.5278 25.3692 32.0012 26.6673 32.0012C27.9655 32.0012 29.2191 31.5278 30.1931 30.6696C31.1672 29.8115 31.7948 28.6275 31.9584 27.3397C32.122 26.0519 31.8103 24.7486 31.0817 23.6742C30.3531 22.5998 29.2577 21.828 28.0007 21.5035ZM12 6.66681C12 5.87566 12.2347 5.10226 12.6742 4.44444C13.1137 3.78661 13.7385 3.2739 14.4694 2.97114C15.2004 2.66837 16.0047 2.58916 16.7806 2.7435C17.5566 2.89785 18.2693 3.27883 18.8288 3.83827C19.3882 4.3977 19.7692 5.11046 19.9235 5.88642C20.0779 6.66238 19.9987 7.46668 19.6959 8.19761C19.3931 8.92855 18.8804 9.55329 18.2226 9.99284C17.5648 10.4324 16.7914 10.667 16.0002 10.667C14.9393 10.667 13.9218 10.2455 13.1717 9.49536C12.4215 8.74519 12 7.72773 12 6.66681ZM7.99987 26.6677C7.99987 27.1951 7.84347 27.7107 7.55044 28.1493C7.25741 28.5878 6.84091 28.9296 6.35362 29.1315C5.86633 29.3333 5.33013 29.3861 4.81283 29.2832C4.29552 29.1803 3.82035 28.9263 3.44739 28.5534C3.07443 28.1804 2.82045 27.7052 2.71755 27.1879C2.61465 26.6706 2.66746 26.1344 2.8693 25.6471C3.07115 25.1599 3.41295 24.7434 3.8515 24.4503C4.29005 24.1573 4.80565 24.0009 5.33309 24.0009C6.04036 24.0009 6.71867 24.2819 7.21879 24.782C7.71891 25.2821 7.99987 25.9604 7.99987 26.6677ZM18.667 26.6677C18.667 27.1951 18.5106 27.7107 18.2176 28.1493C17.9245 28.5878 17.508 28.9296 17.0208 29.1315C16.5335 29.3333 15.9973 29.3861 15.48 29.2832C14.9627 29.1803 14.4875 28.9263 14.1145 28.5534C13.7416 28.1804 13.4876 27.7052 13.3847 27.1879C13.2818 26.6706 13.3346 26.1344 13.5364 25.6471C13.7383 25.1599 14.0801 24.7434 14.5186 24.4503C14.9572 24.1573 15.4728 24.0009 16.0002 24.0009C16.7075 24.0009 17.3858 24.2819 17.8859 24.782C18.386 25.2821 18.667 25.9604 18.667 26.6677ZM26.6673 29.3345C26.1399 29.3345 25.6243 29.1781 25.1858 28.885C24.7472 28.592 24.4054 28.1755 24.2036 27.6882C24.0017 27.2009 23.9489 26.6647 24.0518 26.1474C24.1547 25.6301 24.4087 25.1549 24.7816 24.782C25.1546 24.409 25.6298 24.155 26.1471 24.0521C26.6644 23.9492 27.2006 24.0021 27.6879 24.2039C28.1752 24.4057 28.5917 24.7475 28.8847 25.1861C29.1777 25.6246 29.3341 26.1402 29.3341 26.6677C29.3341 27.375 29.0532 28.0533 28.553 28.5534C28.0529 29.0535 27.3746 29.3345 26.6673 29.3345Z" fill="#1672c9"/>
</svg>
