<svg width="20" height="20" viewBox="0 0 18 18" fill="none" xmlns="http://www.w3.org/2000/svg">
<path d="M16.858 12.4442L13.2121 10.8817C13.0564 10.8153 12.8833 10.8014 12.7189 10.8419C12.5545 10.8824 12.4077 10.9752 12.3006 11.1063L10.686 13.079C8.15205 11.8843 6.11278 9.845 4.91804 7.31102L6.89072 5.69641C7.02213 5.58953 7.11514 5.44275 7.15567 5.27829C7.1962 5.11382 7.18204 4.94063 7.11534 4.78493L5.55281 1.13904C5.47961 0.971197 5.35013 0.834163 5.18671 0.751561C5.02329 0.66896 4.83617 0.64597 4.65762 0.686554L1.27215 1.46782C1.1 1.50757 0.946407 1.6045 0.836441 1.74279C0.726475 1.88107 0.666628 2.05255 0.666668 2.22922C0.666668 10.579 7.43435 17.3337 15.7711 17.3337C15.9478 17.3338 16.1194 17.274 16.2577 17.164C16.3961 17.054 16.493 16.9004 16.5328 16.7282L17.3141 13.3427C17.3544 13.1633 17.3309 12.9754 17.2477 12.8114C17.1644 12.6474 17.0266 12.5176 16.858 12.4442Z" fill="#001D48"/>
</svg>
