<svg width="33" height="31" viewBox="0 0 33 31" fill="none" xmlns="http://www.w3.org/2000/svg">
<path d="M32.3478 4.04348C32.3478 2.97108 31.9218 1.94261 31.1635 1.18431C30.4052 0.426008 29.3767 0 28.3043 0L4.04348 0C2.97108 0 1.94261 0.426008 1.18431 1.18431C0.426008 1.94261 0 2.97108 0 4.04348L0 8.08696C0.00350928 9.08489 0.378265 10.0458 1.0513 10.7826C0.378265 11.5194 0.00350928 12.4803 0 13.4783L0 17.5217C0.00350928 18.5197 0.378265 19.4806 1.0513 20.2174C0.378265 20.9542 0.00350928 21.9151 0 22.913L0 31H32.3478V22.913C32.3443 21.9151 31.9696 20.9542 31.2965 20.2174C31.9696 19.4806 32.3443 18.5197 32.3478 17.5217V13.4783C32.3443 12.4803 31.9696 11.5194 31.2965 10.7826C31.9696 10.0458 32.3443 9.08489 32.3478 8.08696V4.04348ZM2.69565 4.04348C2.69565 3.68601 2.83765 3.34319 3.09042 3.09042C3.34319 2.83765 3.68601 2.69565 4.04348 2.69565H6.73913V5.3913H9.43478V2.69565H12.1304V5.3913H14.8261V2.69565H28.3043C28.6618 2.69565 29.0046 2.83765 29.2574 3.09042C29.5102 3.34319 29.6522 3.68601 29.6522 4.04348V8.08696C29.6522 8.44442 29.5102 8.78725 29.2574 9.04001C29.0046 9.29278 28.6618 9.43478 28.3043 9.43478H4.04348C3.68601 9.43478 3.34319 9.29278 3.09042 9.04001C2.83765 8.78725 2.69565 8.44442 2.69565 8.08696V4.04348ZM29.6522 13.4783V17.5217C29.6522 17.8792 29.5102 18.222 29.2574 18.4748C29.0046 18.7276 28.6618 18.8696 28.3043 18.8696H4.04348C3.68601 18.8696 3.34319 18.7276 3.09042 18.4748C2.83765 18.222 2.69565 17.8792 2.69565 17.5217V13.4783C2.69565 13.1208 2.83765 12.778 3.09042 12.5252C3.34319 12.2724 3.68601 12.1304 4.04348 12.1304H6.73913V14.8261H9.43478V12.1304H12.1304V14.8261H14.8261V12.1304H28.3043C28.6618 12.1304 29.0046 12.2724 29.2574 12.5252C29.5102 12.778 29.6522 13.1208 29.6522 13.4783ZM29.6522 28.3043H2.69565V22.913C2.69565 22.5556 2.83765 22.2128 3.09042 21.96C3.34319 21.7072 3.68601 21.5652 4.04348 21.5652H6.73913V24.2609H9.43478V21.5652H12.1304V24.2609H14.8261V21.5652H28.3043C28.6618 21.5652 29.0046 21.7072 29.2574 21.96C29.5102 22.2128 29.6522 22.5556 29.6522 22.913V28.3043Z" fill="#1672c9"/>
</svg>
