<svg width="18" height="18" viewBox="0 0 18 18" fill="none" xmlns="http://www.w3.org/2000/svg">
<path d="M16.3505 0.25H1.74537C0.947327 0.25 0.250061 0.824219 0.250061 1.61289V16.2504C0.250061 17.0434 0.947327 17.75 1.74537 17.75H16.3462C17.1485 17.75 17.7501 17.0387 17.7501 16.2504V1.61289C17.7547 0.824219 17.1485 0.25 16.3505 0.25ZM5.67467 14.8371H3.16764V7.04219H5.67467V14.8371ZM4.50787 5.85703H4.4899C3.68756 5.85703 3.16803 5.25977 3.16803 4.51211C3.16803 3.75078 3.70123 3.16758 4.52155 3.16758C5.34186 3.16758 5.84381 3.74648 5.86178 4.51211C5.86139 5.25977 5.34186 5.85703 4.50787 5.85703ZM14.8372 14.8371H12.3301V10.575C12.3301 9.55391 11.9653 8.85625 11.0583 8.85625C10.3653 8.85625 9.95514 9.325 9.77272 9.78164C9.70436 9.9457 9.686 10.1691 9.686 10.3973V14.8371H7.17897V7.04219H9.686V8.12695C10.0508 7.60742 10.6208 6.85977 11.9469 6.85977C13.5926 6.85977 14.8376 7.94453 14.8376 10.2832L14.8372 14.8371Z" fill="white"/>
</svg>
