<svg width="106" height="38" viewBox="0 0 106 38" fill="none" xmlns="http://www.w3.org/2000/svg">
<path d="M50.882 11.7734V12.3883C50.882 13.4353 50.7369 14.375 50.4468 15.2075C50.163 16.04 49.7562 16.7495 49.2265 17.336C48.703 17.9225 48.0786 18.3734 47.3534 18.6888C46.6344 18.9978 45.8366 19.1523 44.96 19.1523C44.0833 19.1523 43.2824 18.9978 42.5571 18.6888C41.8318 18.3734 41.2011 17.9225 40.6651 17.336C40.1353 16.7495 39.7254 16.04 39.4352 15.2075C39.1451 14.375 39.0001 13.4353 39.0001 12.3883V11.7734C39.0001 10.7265 39.1451 9.78682 39.4352 8.95433C39.7254 8.11553 40.1321 7.40287 40.6556 6.81634C41.1854 6.22981 41.8129 5.78204 42.5382 5.47301C43.2634 5.15767 44.0644 5 44.941 5C45.8177 5 46.6186 5.15767 47.3439 5.47301C48.0692 5.78204 48.6935 6.22981 49.217 6.81634C49.7468 7.40287 50.1567 8.11553 50.4468 8.95433C50.7369 9.78682 50.882 10.7265 50.882 11.7734ZM47.7696 12.3883V11.7545C47.7696 11.0545 47.7065 10.4364 47.5804 9.90034C47.4543 9.35796 47.2714 8.90387 47.0317 8.53808C46.7921 8.17229 46.4956 7.89795 46.1425 7.71505C45.7893 7.52585 45.3888 7.43125 44.941 7.43125C44.4743 7.43125 44.0676 7.52585 43.7207 7.71505C43.3738 7.89795 43.0805 8.17229 42.8409 8.53808C42.6075 8.90387 42.4278 9.35796 42.3017 9.90034C42.1818 10.4364 42.1219 11.0545 42.1219 11.7545V12.3883C42.1219 13.0821 42.1818 13.7002 42.3017 14.2425C42.4278 14.7786 42.6107 15.2327 42.8503 15.6048C43.09 15.9769 43.3833 16.2575 43.7301 16.4467C44.0833 16.6359 44.4933 16.7305 44.96 16.7305C45.4077 16.7305 45.8051 16.6359 46.1519 16.4467C46.5051 16.2575 46.8015 15.9769 47.0412 15.6048C47.2808 15.2327 47.4606 14.7786 47.5804 14.2425C47.7065 13.7002 47.7696 13.0821 47.7696 12.3883Z" fill="white"/>
<path d="M58.2041 14.1763H54.7417V11.7829H58.2041C58.715 11.7829 59.1249 11.6978 59.4339 11.5275C59.7493 11.3572 59.9795 11.1238 60.1245 10.8274C60.2759 10.5247 60.3516 10.1841 60.3516 9.80574C60.3516 9.41472 60.2759 9.05208 60.1245 8.71782C59.9795 8.37726 59.7493 8.10292 59.4339 7.89479C59.1249 7.68667 58.715 7.58261 58.2041 7.58261H55.858V18.9631H52.774V5.1892H58.2041C59.3015 5.1892 60.2412 5.38786 61.0232 5.78519C61.8116 6.18251 62.4139 6.72805 62.8301 7.42179C63.2527 8.10922 63.4639 8.89757 63.4639 9.78682C63.4639 10.6761 63.2527 11.4486 62.8301 12.1045C62.4139 12.7604 61.8116 13.2713 61.0232 13.6371C60.2412 13.9966 59.3015 14.1763 58.2041 14.1763Z" fill="white"/>
<path d="M74.7025 16.5792V18.9631H67.371V16.5792H74.7025ZM68.421 5.1892V18.9631H65.337V5.1892H68.421ZM73.7565 10.7328V13.0411H67.371V10.7328H73.7565ZM74.712 5.1892V7.58261H67.371V5.1892H74.712Z" fill="white"/>
<path d="M87.5778 5.1892V18.9631H84.5032L79.3002 10.0612V18.9631H76.2162V5.1892H79.3002L84.5127 14.0912V5.1892H87.5778Z" fill="white"/>
<path d="M93.1403 5.1892V18.9631H90.0658V5.1892H93.1403Z" fill="white"/>
<path d="M101.758 5.1892V18.9631H98.6839V5.1892H101.758ZM105.949 5.1892V7.58261H94.5782V5.1892H105.949Z" fill="white"/>
<path d="M45.8744 27.9445V31.2114C45.7693 31.3669 45.5885 31.5393 45.3321 31.7285C45.0756 31.9177 44.7308 32.0838 44.2977 32.2268C43.8647 32.3655 43.3265 32.4349 42.6832 32.4349C42.145 32.4349 41.651 32.3382 41.2011 32.1448C40.7513 31.9514 40.3602 31.6718 40.0281 31.306C39.7001 30.936 39.4458 30.4924 39.265 29.9753C39.0884 29.4581 39.0001 28.8779 39.0001 28.2346V27.1246C39.0001 26.4939 39.0821 25.9263 39.246 25.4218C39.41 24.913 39.6476 24.4779 39.9587 24.1163C40.2698 23.7547 40.644 23.4793 41.0813 23.2901C41.5228 23.0967 42.0168 23 42.5634 23C43.2445 23 43.8184 23.1177 44.2851 23.3532C44.7518 23.5886 45.1155 23.9124 45.3762 24.3244C45.6411 24.7323 45.8051 25.1947 45.8681 25.7119H45.0924C45.0335 25.3461 44.9116 25.0097 44.7266 24.7028C44.5416 24.3917 44.2725 24.1415 43.9193 23.9523C43.5704 23.7631 43.1184 23.6685 42.5634 23.6685C42.1177 23.6685 41.7204 23.7505 41.3714 23.9145C41.0267 24.0785 40.7365 24.3118 40.5011 24.6145C40.2656 24.9172 40.0869 25.2809 39.965 25.7056C39.8431 26.126 39.7821 26.5948 39.7821 27.112V28.2346C39.7821 28.7728 39.8494 29.2584 39.9839 29.6915C40.1227 30.1245 40.3203 30.4966 40.5768 30.8077C40.8332 31.1189 41.1402 31.3585 41.4976 31.5267C41.8549 31.6907 42.2523 31.7727 42.6895 31.7727C43.1562 31.7727 43.5536 31.7285 43.8815 31.6402C44.2095 31.5519 44.4722 31.4468 44.6698 31.3249C44.8717 31.1988 45.0167 31.081 45.105 30.9717V28.6067H42.6391V27.9445H45.8744Z" fill="white" fill-opacity="0.5"/>
<path d="M48.6683 26.6138V32.3088H47.9178V25.4849H48.6494L48.6683 26.6138ZM51.0838 25.4344L51.0649 26.1281C50.9808 26.1155 50.8988 26.105 50.8189 26.0966C50.739 26.0882 50.6528 26.084 50.5603 26.084C50.2324 26.084 49.9444 26.145 49.6963 26.2669C49.4525 26.3846 49.2464 26.5507 49.0783 26.7651C48.9101 26.9753 48.7818 27.2234 48.6935 27.5093C48.6053 27.791 48.5548 28.0937 48.5422 28.4175L48.2647 28.5247C48.2647 28.079 48.3109 27.6649 48.4034 27.2823C48.4959 26.8997 48.6368 26.5654 48.826 26.2795C49.0194 25.9894 49.2612 25.7645 49.5513 25.6047C49.8456 25.4407 50.1903 25.3587 50.5856 25.3587C50.6823 25.3587 50.7769 25.3671 50.8694 25.3839C50.9661 25.3966 51.0376 25.4134 51.0838 25.4344Z" fill="white" fill-opacity="0.5"/>
<path d="M51.7271 29.004V28.7959C51.7271 28.2998 51.7986 27.8415 51.9415 27.421C52.0845 27.0006 52.2884 26.6369 52.5533 26.33C52.8224 26.023 53.144 25.7855 53.5182 25.6173C53.8924 25.4449 54.3087 25.3587 54.7669 25.3587C55.2294 25.3587 55.6478 25.4449 56.022 25.6173C56.3962 25.7855 56.7178 26.023 56.9869 26.33C57.256 26.6369 57.462 27.0006 57.605 27.421C57.7479 27.8415 57.8194 28.2998 57.8194 28.7959V29.004C57.8194 29.5001 57.7479 29.9584 57.605 30.3789C57.462 30.7951 57.256 31.1567 56.9869 31.4636C56.722 31.7706 56.4025 32.0102 56.0283 32.1826C55.6541 32.3508 55.2378 32.4349 54.7796 32.4349C54.3171 32.4349 53.8987 32.3508 53.5245 32.1826C53.1503 32.0102 52.8287 31.7706 52.5596 31.4636C52.2905 31.1567 52.0845 30.7951 51.9415 30.3789C51.7986 29.9584 51.7271 29.5001 51.7271 29.004ZM52.4776 28.7959V29.004C52.4776 29.3782 52.528 29.7335 52.629 30.0699C52.7299 30.402 52.877 30.6984 53.0704 30.9591C53.2638 31.2156 53.5035 31.4174 53.7894 31.5646C54.0753 31.7117 54.4054 31.7853 54.7796 31.7853C55.1495 31.7853 55.4754 31.7117 55.7571 31.5646C56.043 31.4174 56.2827 31.2156 56.4761 30.9591C56.6695 30.6984 56.8145 30.402 56.9112 30.0699C57.0121 29.7335 57.0626 29.3782 57.0626 29.004V28.7959C57.0626 28.4259 57.0121 28.0748 56.9112 27.7427C56.8145 27.4105 56.6674 27.1141 56.4698 26.8534C56.2764 26.5927 56.0367 26.3867 55.7508 26.2354C55.4649 26.084 55.1369 26.0083 54.7669 26.0083C54.3969 26.0083 54.069 26.084 53.7831 26.2354C53.5014 26.3867 53.2617 26.5927 53.0641 26.8534C52.8707 27.1141 52.7236 27.4105 52.6226 27.7427C52.5259 28.0748 52.4776 28.4259 52.4776 28.7959Z" fill="white" fill-opacity="0.5"/>
<path d="M63.754 30.7321V25.4849H64.5109V32.3088H63.7856L63.754 30.7321ZM63.8928 29.4707L64.2838 29.4581C64.2838 29.887 64.2334 30.2822 64.1325 30.6438C64.0315 31.0054 63.8739 31.3207 63.6594 31.5898C63.445 31.8589 63.1675 32.067 62.827 32.2142C62.4864 32.3613 62.0765 32.4349 61.5971 32.4349C61.265 32.4349 60.9602 32.3886 60.6827 32.2961C60.4094 32.1994 60.1739 32.0481 59.9763 31.8421C59.7787 31.636 59.6252 31.369 59.5159 31.0411C59.4108 30.7131 59.3582 30.3158 59.3582 29.8491V25.4849H60.1088V29.8617C60.1088 30.2275 60.1487 30.5324 60.2286 30.7762C60.3127 31.0201 60.4262 31.2156 60.5691 31.3627C60.7163 31.5099 60.8845 31.615 61.0737 31.6781C61.2629 31.7411 61.4668 31.7727 61.6854 31.7727C62.2404 31.7727 62.6777 31.6655 62.9972 31.451C63.321 31.2366 63.5501 30.9549 63.6847 30.6059C63.8234 30.2528 63.8928 29.8743 63.8928 29.4707Z" fill="white" fill-opacity="0.5"/>
<path d="M67.2291 26.7967V34.9324H66.4723V25.4849H67.1786L67.2291 26.7967ZM71.9717 28.8337V28.9662C71.9717 29.4749 71.9129 29.9416 71.7951 30.3663C71.6774 30.7909 71.5071 31.1588 71.2843 31.47C71.0657 31.7769 70.7945 32.0144 70.4707 32.1826C70.147 32.3508 69.7791 32.4349 69.367 32.4349C68.9592 32.4349 68.5955 32.3718 68.276 32.2457C67.9564 32.1195 67.681 31.9409 67.4498 31.7096C67.2228 31.4742 67.0399 31.2009 66.9011 30.8897C66.7666 30.5744 66.672 30.2296 66.6173 29.8554V28.1085C66.6804 27.6964 66.7834 27.3222 66.9263 26.9859C67.0693 26.6495 67.2522 26.3594 67.475 26.1155C67.7021 25.8717 67.9712 25.6846 68.2823 25.5542C68.5934 25.4239 68.9487 25.3587 69.3481 25.3587C69.7644 25.3587 70.1344 25.4407 70.4581 25.6047C70.7861 25.7645 71.0615 25.9978 71.2843 26.3047C71.5113 26.6075 71.6816 26.9732 71.7951 27.4021C71.9129 27.8268 71.9717 28.304 71.9717 28.8337ZM71.2149 28.9662V28.8337C71.2149 28.4343 71.1729 28.0643 71.0888 27.7238C71.0089 27.3832 70.8849 27.0868 70.7167 26.8345C70.5527 26.578 70.3425 26.3783 70.086 26.2354C69.8337 26.0924 69.5331 26.0209 69.1842 26.0209C68.8226 26.0209 68.5135 26.0819 68.2571 26.2038C68.0048 26.3216 67.7946 26.4792 67.6264 26.6768C67.4582 26.8702 67.3258 27.0826 67.2291 27.3138C67.1324 27.5451 67.0609 27.7721 67.0146 27.9949V30.0068C67.0945 30.3263 67.2228 30.6227 67.3993 30.896C67.5759 31.1651 67.8114 31.3817 68.1057 31.5456C68.4042 31.7054 68.7679 31.7853 69.1968 31.7853C69.5415 31.7853 69.8401 31.7138 70.0923 31.5709C70.3446 31.4279 70.5527 31.2282 70.7167 30.9717C70.8849 30.7152 71.0089 30.4167 71.0888 30.0762C71.1729 29.7356 71.2149 29.3656 71.2149 28.9662Z" fill="white" fill-opacity="0.5"/>
<ellipse cx="16.6266" cy="19.1364" rx="7.0246" ry="8.45837" transform="rotate(-44.3554 16.6266 19.1364)" fill="white"/>
<path fill-rule="evenodd" clip-rule="evenodd" d="M30.4218 29.705C31.7267 25.6242 31.1224 19.9716 28.4383 14.6096C24.2873 6.31725 16.7339 1.86 11.5674 4.65401C7.85882 6.65959 6.38814 11.8563 7.38874 17.6964C7.57588 13.8817 9.04669 10.7517 11.7062 9.31345C16.6849 6.62099 23.9443 10.8773 27.9203 18.8201C29.7745 22.5242 30.5873 26.3758 30.4218 29.705Z" fill="white"/>
<path fill-rule="evenodd" clip-rule="evenodd" d="M3.61435 8.11067C2.30937 12.1915 2.91366 17.8441 5.59782 23.2061C9.74884 31.4984 17.3022 35.9557 22.4687 33.1617C26.1773 31.1561 27.648 25.9594 26.6474 20.1193C26.4602 23.9339 24.9894 27.064 22.3299 28.5022C17.3512 31.1947 10.0919 26.9384 6.11578 18.9956C4.26157 15.2915 3.44882 11.4398 3.61435 8.11067Z" fill="white"/>
</svg>
