<svg width="106" height="38" viewBox="0 0 106 38" fill="none" xmlns="http://www.w3.org/2000/svg">
<path d="M50.8819 11.7734V12.3883C50.8819 13.4353 50.7368 14.375 50.4467 15.2075C50.1629 16.04 49.7561 16.7495 49.2264 17.336C48.7029 17.9225 48.0786 18.3734 47.3533 18.6888C46.6343 18.9978 45.8365 19.1523 44.9599 19.1523C44.0832 19.1523 43.2823 18.9978 42.557 18.6888C41.8317 18.3734 41.2011 17.9225 40.665 17.336C40.1352 16.7495 39.7253 16.04 39.4352 15.2075C39.1451 14.375 39 13.4353 39 12.3883V11.7734C39 10.7265 39.1451 9.78682 39.4352 8.95433C39.7253 8.11553 40.1321 7.40287 40.6555 6.81634C41.1853 6.22981 41.8128 5.78204 42.5381 5.47301C43.2634 5.15767 44.0643 5 44.941 5C45.8176 5 46.6185 5.15767 47.3438 5.47301C48.0691 5.78204 48.6935 6.22981 49.2169 6.81634C49.7467 7.40287 50.1566 8.11553 50.4467 8.95433C50.7368 9.78682 50.8819 10.7265 50.8819 11.7734ZM47.7695 12.3883V11.7545C47.7695 11.0545 47.7065 10.4364 47.5803 9.90034C47.4542 9.35796 47.2713 8.90387 47.0316 8.53808C46.792 8.17229 46.4956 7.89795 46.1424 7.71505C45.7892 7.52585 45.3887 7.43125 44.941 7.43125C44.4743 7.43125 44.0675 7.52585 43.7206 7.71505C43.3737 7.89795 43.0805 8.17229 42.8408 8.53808C42.6075 8.90387 42.4277 9.35796 42.3016 9.90034C42.1818 10.4364 42.1218 11.0545 42.1218 11.7545V12.3883C42.1218 13.0821 42.1818 13.7002 42.3016 14.2425C42.4277 14.7786 42.6106 15.2327 42.8503 15.6048C43.0899 15.9769 43.3832 16.2575 43.7301 16.4467C44.0832 16.6359 44.4932 16.7305 44.9599 16.7305C45.4076 16.7305 45.805 16.6359 46.1518 16.4467C46.505 16.2575 46.8014 15.9769 47.0411 15.6048C47.2808 15.2327 47.4605 14.7786 47.5803 14.2425C47.7065 13.7002 47.7695 13.0821 47.7695 12.3883Z" fill="#001D48"/>
<path d="M58.204 14.1763H54.7416V11.7829H58.204C58.7149 11.7829 59.1248 11.6978 59.4338 11.5275C59.7492 11.3572 59.9794 11.1238 60.1244 10.8274C60.2758 10.5247 60.3515 10.1841 60.3515 9.80574C60.3515 9.41472 60.2758 9.05208 60.1244 8.71782C59.9794 8.37726 59.7492 8.10292 59.4338 7.89479C59.1248 7.68667 58.7149 7.58261 58.204 7.58261H55.8579V18.9631H52.7739V5.1892H58.204C59.3014 5.1892 60.2411 5.38786 61.0231 5.78519C61.8115 6.18251 62.4138 6.72805 62.83 7.42179C63.2526 8.10922 63.4639 8.89757 63.4639 9.78682C63.4639 10.6761 63.2526 11.4486 62.83 12.1045C62.4138 12.7604 61.8115 13.2713 61.0231 13.6371C60.2411 13.9966 59.3014 14.1763 58.204 14.1763Z" fill="#001D48"/>
<path d="M74.7025 16.5792V18.9631H67.3709V16.5792H74.7025ZM68.4209 5.1892V18.9631H65.337V5.1892H68.4209ZM73.7565 10.7328V13.0411H67.3709V10.7328H73.7565ZM74.7119 5.1892V7.58261H67.3709V5.1892H74.7119Z" fill="#001D48"/>
<path d="M87.5777 5.1892V18.9631H84.5031L79.3001 10.0612V18.9631H76.2161V5.1892H79.3001L84.5126 14.0912V5.1892H87.5777Z" fill="#001D48"/>
<path d="M93.1402 5.1892V18.9631H90.0657V5.1892H93.1402Z" fill="#001D48"/>
<path d="M101.758 5.1892V18.9631H98.6838V5.1892H101.758ZM105.949 5.1892V7.58261H94.5782V5.1892H105.949Z" fill="#001D48"/>
<path d="M45.8743 27.9445V31.2114C45.7692 31.3669 45.5884 31.5393 45.332 31.7285C45.0755 31.9177 44.7307 32.0838 44.2977 32.2268C43.8646 32.3655 43.3264 32.4349 42.6831 32.4349C42.145 32.4349 41.6509 32.3382 41.2011 32.1448C40.7512 31.9514 40.3602 31.6718 40.028 31.306C39.7 30.936 39.4457 30.4924 39.2649 29.9753C39.0883 29.4581 39 28.8779 39 28.2346V27.1246C39 26.4939 39.082 25.9263 39.246 25.4218C39.4099 24.913 39.6475 24.4779 39.9586 24.1163C40.2698 23.7547 40.644 23.4793 41.0812 23.2901C41.5227 23.0967 42.0167 23 42.5633 23C43.2444 23 43.8184 23.1177 44.285 23.3532C44.7517 23.5886 45.1154 23.9124 45.3761 24.3244C45.641 24.7323 45.805 25.1947 45.868 25.7119H45.0923C45.0335 25.3461 44.9115 25.0097 44.7265 24.7028C44.5415 24.3917 44.2724 24.1415 43.9193 23.9523C43.5703 23.7631 43.1183 23.6685 42.5633 23.6685C42.1176 23.6685 41.7203 23.7505 41.3713 23.9145C41.0266 24.0785 40.7365 24.3118 40.501 24.6145C40.2656 24.9172 40.0869 25.2809 39.9649 25.7056C39.843 26.126 39.782 26.5948 39.782 27.112V28.2346C39.782 28.7728 39.8493 29.2584 39.9839 29.6915C40.1226 30.1245 40.3202 30.4966 40.5767 30.8077C40.8332 31.1189 41.1401 31.3585 41.4975 31.5267C41.8549 31.6907 42.2522 31.7727 42.6894 31.7727C43.1561 31.7727 43.5535 31.7285 43.8814 31.6402C44.2094 31.5519 44.4721 31.4468 44.6698 31.3249C44.8716 31.1988 45.0166 31.081 45.1049 30.9717V28.6067H42.639V27.9445H45.8743Z" fill="#434343"/>
<path d="M48.6682 26.6138V32.3088H47.9177V25.4849H48.6493L48.6682 26.6138ZM51.0837 25.4344L51.0648 26.1281C50.9807 26.1155 50.8987 26.105 50.8188 26.0966C50.7389 26.0882 50.6528 26.084 50.5603 26.084C50.2323 26.084 49.9443 26.145 49.6962 26.2669C49.4524 26.3846 49.2464 26.5507 49.0782 26.7651C48.91 26.9753 48.7818 27.2234 48.6935 27.5093C48.6052 27.791 48.5547 28.0937 48.5421 28.4175L48.2646 28.5247C48.2646 28.079 48.3109 27.6649 48.4034 27.2823C48.4959 26.8997 48.6367 26.5654 48.8259 26.2795C49.0193 25.9894 49.2611 25.7645 49.5512 25.6047C49.8455 25.4407 50.1903 25.3587 50.5855 25.3587C50.6822 25.3587 50.7768 25.3671 50.8693 25.3839C50.966 25.3966 51.0375 25.4134 51.0837 25.4344Z" fill="#434343"/>
<path d="M51.727 29.004V28.7959C51.727 28.2998 51.7985 27.8415 51.9414 27.421C52.0844 27.0006 52.2883 26.6369 52.5532 26.33C52.8223 26.023 53.1439 25.7855 53.5181 25.6173C53.8923 25.4449 54.3086 25.3587 54.7669 25.3587C55.2294 25.3587 55.6477 25.4449 56.0219 25.6173C56.3961 25.7855 56.7177 26.023 56.9868 26.33C57.2559 26.6369 57.4619 27.0006 57.6049 27.421C57.7478 27.8415 57.8193 28.2998 57.8193 28.7959V29.004C57.8193 29.5001 57.7478 29.9584 57.6049 30.3789C57.4619 30.7951 57.2559 31.1567 56.9868 31.4636C56.7219 31.7706 56.4024 32.0102 56.0282 32.1826C55.654 32.3508 55.2378 32.4349 54.7795 32.4349C54.317 32.4349 53.8986 32.3508 53.5244 32.1826C53.1502 32.0102 52.8286 31.7706 52.5595 31.4636C52.2904 31.1567 52.0844 30.7951 51.9414 30.3789C51.7985 29.9584 51.727 29.5001 51.727 29.004ZM52.4775 28.7959V29.004C52.4775 29.3782 52.528 29.7335 52.6289 30.0699C52.7298 30.402 52.8769 30.6984 53.0703 30.9591C53.2637 31.2156 53.5034 31.4174 53.7893 31.5646C54.0752 31.7117 54.4053 31.7853 54.7795 31.7853C55.1495 31.7853 55.4753 31.7117 55.757 31.5646C56.0429 31.4174 56.2826 31.2156 56.476 30.9591C56.6694 30.6984 56.8144 30.402 56.9111 30.0699C57.0121 29.7335 57.0625 29.3782 57.0625 29.004V28.7959C57.0625 28.4259 57.0121 28.0748 56.9111 27.7427C56.8144 27.4105 56.6673 27.1141 56.4697 26.8534C56.2763 26.5927 56.0366 26.3867 55.7507 26.2354C55.4648 26.084 55.1369 26.0083 54.7669 26.0083C54.3969 26.0083 54.0689 26.084 53.783 26.2354C53.5013 26.3867 53.2616 26.5927 53.064 26.8534C52.8706 27.1141 52.7235 27.4105 52.6226 27.7427C52.5259 28.0748 52.4775 28.4259 52.4775 28.7959Z" fill="#434343"/>
<path d="M63.754 30.7321V25.4849H64.5108V32.3088H63.7855L63.754 30.7321ZM63.8927 29.4707L64.2837 29.4581C64.2837 29.887 64.2333 30.2822 64.1324 30.6438C64.0315 31.0054 63.8738 31.3207 63.6594 31.5898C63.4449 31.8589 63.1674 32.067 62.8269 32.2142C62.4863 32.3613 62.0764 32.4349 61.5971 32.4349C61.2649 32.4349 60.9601 32.3886 60.6826 32.2961C60.4093 32.1994 60.1738 32.0481 59.9762 31.8421C59.7786 31.636 59.6252 31.369 59.5158 31.0411C59.4107 30.7131 59.3582 30.3158 59.3582 29.8491V25.4849H60.1087V29.8617C60.1087 30.2275 60.1486 30.5324 60.2285 30.7762C60.3126 31.0201 60.4261 31.2156 60.5691 31.3627C60.7162 31.5099 60.8844 31.615 61.0736 31.6781C61.2628 31.7411 61.4667 31.7727 61.6854 31.7727C62.2403 31.7727 62.6776 31.6655 62.9972 31.451C63.3209 31.2366 63.55 30.9549 63.6846 30.6059C63.8233 30.2528 63.8927 29.8743 63.8927 29.4707Z" fill="#434343"/>
<path d="M67.229 26.7967V34.9324H66.4722V25.4849H67.1785L67.229 26.7967ZM71.9716 28.8337V28.9662C71.9716 29.4749 71.9128 29.9416 71.7951 30.3663C71.6773 30.7909 71.5071 31.1588 71.2842 31.47C71.0656 31.7769 70.7944 32.0144 70.4706 32.1826C70.1469 32.3508 69.779 32.4349 69.367 32.4349C68.9591 32.4349 68.5954 32.3718 68.2759 32.2457C67.9564 32.1195 67.681 31.9409 67.4497 31.7096C67.2227 31.4742 67.0398 31.2009 66.901 30.8897C66.7665 30.5744 66.6719 30.2296 66.6172 29.8554V28.1085C66.6803 27.6964 66.7833 27.3222 66.9263 26.9859C67.0692 26.6495 67.2521 26.3594 67.4749 26.1155C67.702 25.8717 67.9711 25.6846 68.2822 25.5542C68.5933 25.4239 68.9486 25.3587 69.348 25.3587C69.7643 25.3587 70.1343 25.4407 70.458 25.6047C70.786 25.7645 71.0614 25.9978 71.2842 26.3047C71.5113 26.6075 71.6815 26.9732 71.7951 27.4021C71.9128 27.8268 71.9716 28.304 71.9716 28.8337ZM71.2148 28.9662V28.8337C71.2148 28.4343 71.1728 28.0643 71.0887 27.7238C71.0088 27.3832 70.8848 27.0868 70.7166 26.8345C70.5526 26.578 70.3424 26.3783 70.0859 26.2354C69.8337 26.0924 69.533 26.0209 69.1841 26.0209C68.8225 26.0209 68.5135 26.0819 68.257 26.2038C68.0047 26.3216 67.7945 26.4792 67.6263 26.6768C67.4581 26.8702 67.3257 27.0826 67.229 27.3138C67.1323 27.5451 67.0608 27.7721 67.0145 27.9949V30.0068C67.0944 30.3263 67.2227 30.6227 67.3993 30.896C67.5758 31.1651 67.8113 31.3817 68.1056 31.5456C68.4041 31.7054 68.7678 31.7853 69.1967 31.7853C69.5415 31.7853 69.84 31.7138 70.0922 31.5709C70.3445 31.4279 70.5526 31.2282 70.7166 30.9717C70.8848 30.7152 71.0088 30.4167 71.0887 30.0762C71.1728 29.7356 71.2148 29.3656 71.2148 28.9662Z" fill="#434343"/>
<ellipse cx="16.6264" cy="19.1364" rx="7.0246" ry="8.45837" transform="rotate(-44.3554 16.6264 19.1364)" fill="#001D48"/>
<path fill-rule="evenodd" clip-rule="evenodd" d="M30.4218 29.7053C31.7268 25.6245 31.1225 19.9718 28.4383 14.6098C24.2873 6.3175 16.734 1.86025 11.5675 4.65426C7.85886 6.65983 6.38818 11.8565 7.38876 17.6966C7.57589 13.8819 9.0467 10.7518 11.7062 9.31357C16.685 6.62111 23.9443 10.8774 27.9204 18.8202C29.7746 22.5243 30.5873 26.3761 30.4218 29.7053Z" fill="#001D48"/>
<path fill-rule="evenodd" clip-rule="evenodd" d="M3.61435 8.11041C2.30936 12.1912 2.91365 17.8438 5.59782 23.2059C9.74883 31.4982 17.3022 35.9554 22.4687 33.1614C26.1773 31.1558 27.648 25.9592 26.6474 20.119C26.4602 23.9338 24.9894 27.0639 22.3299 28.5021C17.3512 31.1946 10.0918 26.9383 6.11577 18.9955C4.26154 15.2913 3.44879 11.4396 3.61435 8.11041Z" fill="#001D48"/>
</svg>
