<?xml version="1.0" encoding="UTF-8"?>
<!DOCTYPE svg PUBLIC "-//W3C//DTD SVG 1.1//EN" "http://www.w3.org/Graphics/SVG/1.1/DTD/svg11.dtd">
<!-- Creator: CorelDRAW -->
<svg xmlns="http://www.w3.org/2000/svg" xml:space="preserve" width="45.6692mm" height="23.6862mm" version="1.1" style="shape-rendering:geometricPrecision; text-rendering:geometricPrecision; image-rendering:optimizeQuality; fill-rule:evenodd; clip-rule:evenodd"
viewBox="0 0 7043.99 2264.79"
 xmlns:xlink="http://www.w3.org/1999/xlink"
 xmlns:xodm="http://www.corel.com/coreldraw/odm/2003">
 <defs>
  <style type="text/css">
   <![CDATA[
    .fil0 {fill:#002751}
    .fil1 {fill:url(#id0)}
   ]]>
  </style>
  <linearGradient id="id0" gradientUnits="objectBoundingBox" x1="0%" y1="50.0001%" x2="99.9966%" y2="50.0001%">
   <stop offset="0" style="stop-opacity:1; stop-color:#B58E4F"/>
   <stop offset="0.431373" style="stop-opacity:1; stop-color:#F8C451"/>
   <stop offset="0.560784" style="stop-opacity:1; stop-color:#F6C758"/>
   <stop offset="1" style="stop-opacity:1; stop-color:#B58E4F"/>
  </linearGradient>
 </defs>
 <g id="Camada_x0020_1">
  <metadata id="CorelCorpID_0Corel-Layer"/>
  <path class="fil0" d="M6034.51 0.48l0 702.77 268.43 0 0 -257.85c0,-31.54 2.87,-56.09 8.91,-73.9 6,-17.83 20.71,-26.72 44.29,-26.72l0 759.58c0,41.65 -2.87,81.85 -8.91,120.6 -6,38.76 -17.34,60.44 -33.7,65.25l0 273.01 451.16 0 0 -286.5c-27.93,-12.52 -41.86,-65.22 -41.86,-158.4l0 -773.55c22.63,6.02 37.07,16.37 43.31,30.81 6.27,14.46 9.38,32.75 9.38,54.65l0 273.01 268.46 0 0 -702.77 -1009.48 0z"/>
  <path class="fil0" d="M5526.75 271.35c16.87,13.23 27.93,33.7 32.75,61.87 4.79,28.17 7.22,59.22 7.22,92.93l5.3 707.09c0,74.16 -14.94,126.16 -45.26,156.49l0 273 463.67 0 0 -273c-13.7,-18.3 -23.11,-32.26 -27.9,-42.14 -5.06,-9.64 -8.67,-24.55 -11.1,-44.78 -2.39,-20.21 -3.6,-48.38 -3.6,-84.5l0 -688.55c0,-38.53 2.67,-69.83 7.49,-93.9 4.79,-24.08 16.6,-45.5 35.35,-64.52l0 -271.35 -463.9 0 0 271.35z"/>
  <path class="fil0" d="M4095.7 599.97c41.66,14.45 62.6,56.58 62.6,126.39l0 379.19c0,41.91 -3.6,74.89 -10.36,99.45 -6.98,24.53 -24.32,43.55 -52.48,57.28l0 300.7 616.81 0 0 -300.7c-42.84,-27.44 -64.29,-74.38 -64.29,-141.07l0 -475.25c23.38,-13 45.5,-19.5 66.21,-19.5 22.16,0 41.42,6.73 57.55,20.46 16.35,13.72 28.64,31.78 37.54,53.93 8.9,22.15 13.25,45.99 13.25,71.51l0 395.79c0,137.22 5.3,268.67 15.65,394.83l535.93 0 0 -285.05c-22.16,-15.65 -38.06,-36.35 -47.93,-62.11 -9.86,-25.76 -14.68,-62.6 -14.68,-110.27l0 -505.57c0,-43.82 -6.98,-90.3 -20.95,-139.17 -13.96,-49.11 -46.72,-93.66 -98.23,-133.85 -51.51,-39.97 -127.09,-60.18 -227.04,-60.18 -66.45,0 -123.49,4.32 -170.68,13.24 -47.43,8.89 -96.07,31.3 -146.39,67.16l0 -47.9 -552.52 0 0 300.7z"/>
  <path class="fil0" d="M2877.74 694.35l0 474.29c0,74.38 11.31,137.46 34.19,189.46 22.86,51.76 57.29,94.86 103.28,128.81 46.22,33.94 101.84,59.22 167.09,75.82 65.49,16.62 143.24,27.46 233.28,32.76 73.9,0 151.45,-8.68 232.81,-26.01 81.12,-17.34 153.58,-39.73 217.39,-67.17 63.79,-27.44 109.06,-54.65 135.78,-81.38l0 -331.26 -490.89 -0.02 0 94.13c0,28.67 -7.69,52.02 -23.11,69.57 -15.4,17.58 -33.21,26.49 -53.42,26.49 -22.86,0 -41.89,-10.35 -57.3,-31.3 -15.41,-20.95 -23.11,-53.19 -23.11,-97.01l0 -126.4 647.6 0 0 -394.83c0,-68.6 -14.94,-126.63 -44.53,-174.31 -29.85,-47.66 -70.06,-85.22 -120.62,-112.66 -50.56,-27.45 -108.58,-46.95 -174.32,-58.75 -65.44,-11.8 -136.99,-17.57 -213.99,-17.57 -95.83,0 -178.42,6.01 -247.76,18.54 -69.08,12.28 -127.6,34.17 -175.26,65.49 -47.67,31.3 -84.27,74.87 -109.3,130.73 -25.29,55.86 -37.81,126.63 -37.81,212.11l0 0.48zm570.36 -126.87c37.07,0 62.09,13.96 74.84,41.64 12.52,27.7 19.03,71.99 19.03,132.67l-187.77 0c0,-60.68 6.27,-104.97 19.02,-132.67 12.76,-27.68 37.82,-41.64 74.89,-41.64z"/>
  <path class="fil0" d="M1614.74 756.95l0 790.62c0,42.38 -3.38,75.83 -10.36,100.4 -6.99,24.55 -24.32,43.58 -52.48,57.3l0 338.02 600.68 -0.01 0 -338.01c-28.16,-6.51 -45.97,-26.49 -53.44,-59.71 -7.46,-33.24 -11.31,-81.38 -11.31,-143.97 69.81,56.09 164.17,84.27 283.12,84.27 24.8,0 51.76,-2.42 80.4,-6.99 129.77,-20.95 212.34,-71.01 247.74,-150.47 35.39,-79.45 52.96,-171.64 52.96,-276.86l0 -567.22c0,-104 -29.84,-182.73 -90.04,-236.66 -59.95,-53.93 -145.65,-80.89 -256.63,-80.89 -65.25,0 -122.55,8.91 -171.9,26.48 -49.36,17.57 -97.76,40.68 -145.41,69.58l0 -63.33 -535.92 0 0 285.07c41.65,14.19 62.59,71.73 62.59,172.38zm569.39 -137.47c63.31,0 95.09,45.74 95.09,137.23l0 332.97c0,97.25 -32.98,145.87 -98.95,145.87 -26.95,0 -57.54,-6.49 -92.19,-19.48l0 -570.11c38.51,-17.57 70.54,-26.48 96.06,-26.48z"/>
  <polygon class="fil0" points="2088.07,1216.07 2088.07,1216.31 "/>
  <path class="fil0" d="M695.78 314.66c345.47,0 625.48,399.91 625.48,892.98 0,205.12 -48.88,393.38 -130.25,544.09 169.25,-159.86 280.96,-433.61 280.96,-745.14 0,-493.29 -279.99,-892.95 -625.49,-892.95 -201.74,0 -380.86,136.99 -495.22,348.86 98.7,-93.41 217.15,-147.83 344.27,-147.83l0.25 0z"/>
  <path class="fil0" d="M776.19 1550.71c-345.48,0 -625.47,-399.89 -625.47,-892.95 0,-205.13 48.87,-393.39 130.24,-544.11 -169.24,159.85 -280.95,433.59 -280.95,745.14 0,18.77 0.47,37.56 1.2,56.1l-0.24 0c20.22,467.05 292.04,836.84 624.28,836.84 201.76,0 380.88,-137 495.24,-348.85 -98.7,93.41 -217.16,147.82 -344.29,147.82z"/>
  <path class="fil0" d="M381.12 1086.06c108.56,240.26 353.67,364.25 547.47,276.62 193.8,-87.64 262.9,-353.42 154.32,-593.69 -108.57,-240.28 -353.67,-364.26 -547.46,-276.64 -193.82,87.64 -262.91,353.44 -154.32,593.71z"/>
  <g id="_2623723071072">
   <path class="fil1" d="M6375.16 1668.19l0 354.63c0,97.99 -58.72,133.86 -123.01,133.86 -64.29,0 -123.77,-36.11 -123.77,-133.86l0 -354.63 -113.6 0 0 369.81c0,138.19 84.5,226.79 237.6,226.79 153.14,0 236.66,-88.85 236.66,-226.79l0 -369.81 -113.88 0z"/>
   <path class="fil1" d="M5927.11 1960.94c0,-171.65 -124.7,-302.86 -297.78,-302.86 -173.11,0 -297.85,131.45 -297.85,302.86 0,171.43 124.74,303.61 297.85,303.61 173.08,0 297.78,-132.18 297.78,-303.61zm-297.55 -194.77c121.07,0 183.91,97.76 183.91,194.77 0,98 -62.84,195.75 -183.91,195.75 -121.13,0 -183.97,-98.71 -183.97,-195.75 0,-97.01 62.84,-194.77 183.97,-194.77z"/>
   <path class="fil1" d="M5261.42 1859.83c0,-111.22 -87.13,-191.63 -218.34,-191.63l-202.49 0 0 585.52 112.93 0 0 -210.65 98.7 0 120.39 210.65 0.23 0.24 129.77 0 -143.97 -234.25c63.55,-29.37 102.78,-86.19 102.78,-159.87zm-218.34 -86.18c63.55,0 102.07,33.47 102.07,86.18 0,58.52 -43.58,85.22 -102.07,85.22l-89.55 0 0 -171.4 89.55 0z"/>
   <path class="fil1" d="M4703.13 1766.19c-52.75,-66.93 -134.59,-107.86 -231.63,-107.86 -174.06,0 -297.82,131.43 -297.82,302.87 0,171.42 123.76,303.59 297.82,303.59 91.24,0 153.14,-37.81 192.37,-94.62l15.17 83.54 61.16 0 0 -331.03 -260.98 0 0 98.7 166.36 0c-16.84,75.13 -71.99,134.59 -174.09,134.59 -121.06,0 -183.91,-97.51 -183.91,-194.77 0,-97.27 62.57,-195.01 183.91,-195.01 60.95,0 106.89,25.28 137.96,62.83l93.68 -62.83z"/>
   <path class="fil1" d="M6598.1 1668.19l0 585.52 113.64 0 0 -181.53 81.87 0c139.88,0 225.12,-80.16 225.12,-201.51l0.24 0c0,-121.34 -85.48,-202.48 -225.13,-202.48l-195.74 0zm114.11 298.78l0 -193.33 81.87 0c69.35,0 109.56,35.15 109.56,97.02 0,61.14 -40.21,96.3 -109.56,96.3l-81.87 0z"/>
  </g>
 </g>
</svg>
